----------------------------------------------------------------

----------------------------------------------------------------
  
http://www.imdb.com/title/tt0478160/

IMDB RATING: 7.2
Genre........................: Documentary
File Size....................: 1.29 GB
LANGUAGE.....................: English – French - Latin
SUBTITLES....................: English – Português Brasileiro
Also Known As................: Into Great Silence

Video
Format                           : MPEG-4 Visual
Format settings, Matrix          : Default (H.263)
Codec ID                         : XVID
Duration                         : 2h 41mn
Bit rate                         : 35.0 Kbps
Width                            : 768 pixels
Height                           : 432 pixels
Display aspect ratio             : 16:9
Frame rate                       : 23.976 fps
Bit depth                        : 8 bits
Bits/(Pixel*Frame)               : 0.004
Stream size                      : 40.5 MiB (3%)
Writing library                  : XviD 1.2.1 (UTC 2008-12-04)

Audio
Format                           : MPEG Audio
Codec ID                         : 55
Codec ID/Hint                    : MP3
Bit rate                         : 128 Kbps
Channel(s)                       : 2 channels
Sampling rate                    : 44.1 KHz
Stream size                      : 148 MiB (11%)

An examination of life inside the Grande Chartreuse, the head monastery of the reclusive Carthusian Order in France.

O Grande Silêncio é o primeiro filme sobre a vida interior da Grande Chartreuse, casa-mãe da Ordem dos Cartuxos, uma meditação silenciosa sobre a vida monástica. Dezessete anos depois de ter pedido autorização para filmar no mosteiro, é dada autorização para entrar ao realizador, que filmará a vida interior dos monges cartuxos. Sem música à excepção dos cânticos do mosteiro, sem entrevistas, nem comentários, ou artifícios. Evocam-se unicamente a passagem do tempo, das estações, os elementos repetidos incessantemente durante o dia ou as orações. Um filme sobre a presença do absoluto e a vida de homens que dedicam a sua existência a Deus. O filme ganhou os Prémios de Melhor Documentário no Festival de Sundance e nos Prémios Europeus do Cinema.
